<svg width="251" height="97" viewBox="0 0 251 97" fill="none" xmlns="http://www.w3.org/2000/svg">
<path d="M43.708 23.0132V0.925781H62.3582V7.53509H50.536V17.0673H61.1896V23.0132H43.708Z" fill="#0E413B"/>
<path d="M64.444 23.0132V0.925781H71.5544V23.0132H64.444Z" fill="#0E413B"/>
<path d="M12.9814 10.4216L12.9302 10.1659C12.4431 10.1659 11.9835 10.038 11.5513 9.78233C11.1191 9.52667 10.8242 9.14316 10.6664 8.6318C10.5087 8.12044 10.4674 7.55416 10.585 6.99903C10.7025 6.4439 10.9701 5.96102 11.3879 5.55038C11.8057 5.13974 12.3275 4.82914 12.9535 4.61858C13.5794 4.40802 14.2568 4.31215 14.9856 4.33097C15.7145 4.34979 16.4385 4.49219 17.1578 4.75785C17.8771 5.02351 18.539 5.42203 19.1436 5.95341L19.4294 6.20907L23.2393 2.76013L22.9535 2.50447C21.9056 1.57904 20.6558 0.892791 19.2923 0.445727C17.9288 -0.00133649 16.4851 -0.129219 15.0414 0.126442C12.4109 0.588019 10.111 1.95679 8.14175 4.23277C6.17249 6.50874 5.17641 9.39055 5.15181 12.2724C5.12722 15.1542 6.0751 17.9304 7.99507 20.601C9.91503 23.2716 12.5938 25.1077 15.2242 26.1038C17.8547 27.0999 20.434 27.0999 23.0132 26.1038C25.5924 25.1077 27.8923 23.3235 29.9103 20.601L30.1449 20.2915L25.9785 17.2008L25.7951 17.4564C25.0758 18.5044 24.1279 19.3499 22.9535 19.9929C21.779 20.6359 20.4258 21.0297 19.0211 21.1743C16.5161 21.4601 14.165 20.7226 12.9814 18.8413V18.5857L28.1759 10.8267L12.9814 10.4216Z" fill="#9ADA34"/>
<path d="M43.708 48.0132V25.9258H62.3582V32.5351H50.536V42.0673H61.1896V48.0132H43.708Z" fill="#0E413B"/>
<path d="M90.3421 25.9258L76.5322 48.0132H68.6166L82.4265 25.9258H90.3421Z" fill="#0E413B"/>
<path d="M96.5701 48.0132V25.9258H115.22V32.5351H103.398V36.3194H114.052V42.2653H103.398V48.0132H96.5701Z" fill="#9ADA34"/>
<path d="M117.306 48.0132V25.9258H124.416V48.0132H117.306Z" fill="#9ADA34"/>
<path d="M126.502 48.0132V25.9258H145.152V32.5351H133.33V36.3194H143.984V42.2653H133.33V48.0132H126.502Z" fill="#9ADA34"/>
<path d="M151.381 48.0132V25.9258H158.491V48.0132H151.381Z" fill="#9ADA34"/>
<path d="M160.587 48.0132V25.9258H179.237V32.5351H167.415V36.3194H178.069V42.2653H167.415V48.0132H160.587Z" fill="#9ADA34"/>
<path d="M181.323 48.0132V25.9258H188.433V48.0132H181.323Z" fill="#9ADA34"/>
<path d="M208.535 37.1594C208.535 34.2044 207.366 31.3216 205.191 29.1468C203.016 26.972 200.134 25.8037 197.179 25.8037C194.224 25.8037 191.341 26.972 189.166 29.1468C186.992 31.3216 185.823 34.2044 185.823 37.1594C185.823 40.1143 186.992 42.9971 189.166 45.1719C191.341 47.3467 194.224 48.515 197.179 48.515C200.134 48.515 203.016 47.3467 205.191 45.1719C207.366 42.9971 208.535 40.1143 208.535 37.1594ZM197.179 42.6179C195.696 42.6179 194.275 42.0298 193.204 40.9585C192.132 39.8872 191.544 38.4658 191.544 36.9828C191.544 35.4998 192.132 34.0784 193.204 33.0071C194.275 31.9358 195.696 31.3477 197.179 31.3477C198.662 31.3477 200.083 31.9358 201.155 33.0071C202.226 34.0784 202.814 35.4998 202.814 36.9828C202.814 38.4658 202.226 39.8872 201.155 40.9585C200.083 42.0298 198.662 42.6179 197.179 42.6179Z" fill="#9ADA34"/>
<path d="M210.621 48.0132V25.9258H217.731V48.0132H210.621Z" fill="#9ADA34"/>
<path d="M236.355 25.9258L222.545 48.0132H214.63L228.44 25.9258H236.355Z" fill="#9ADA34"/>
<path d="M43.708 73.0132V50.9258H62.3582V57.5351H50.536V67.0673H61.1896V73.0132H43.708Z" fill="#0E413B"/>
<path d="M64.444 73.0132V50.9258H71.5544V73.0132H64.444Z" fill="#0E413B"/>
<path d="M90.3421 50.9258L76.5322 73.0132H68.6166L82.4265 50.9258H90.3421Z" fill="#0E413B"/>
<path d="M96.5701 73.0132V50.9258H115.22V57.5351H103.398V61.3194H114.052V67.2653H103.398V73.0132H96.5701Z" fill="#0E413B"/>
<path d="M117.306 73.0132V50.9258H124.416V73.0132H117.306Z" fill="#0E413B"/>
<path d="M126.502 73.0132V50.9258H145.152V57.5351H133.33V61.3194H143.984V67.2653H133.33V73.0132H126.502Z" fill="#0E413B"/>
<path d="M151.381 73.0132V50.9258H158.491V73.0132H151.381Z" fill="#0E413B"/>
<path d="M160.587 73.0132V50.9258H179.237V57.5351H167.415V61.3194H178.069V67.2653H167.415V73.0132H160.587Z" fill="#0E413B"/>
<path d="M181.323 73.0132V50.9258H188.433V73.0132H181.323Z" fill="#0E413B"/>
<path d="M208.535 62.1594C208.535 59.2044 207.366 56.3216 205.191 54.1468C203.016 51.972 200.134 50.8037 197.179 50.8037C194.224 50.8037 191.341 51.972 189.166 54.1468C186.992 56.3216 185.823 59.2044 185.823 62.1594C185.823 65.1143 186.992 67.9971 189.166 70.1719C191.341 72.3467 194.224 73.515 197.179 73.515C200.134 73.515 203.016 72.3467 205.191 70.1719C207.366 67.9971 208.535 65.1143 208.535 62.1594ZM197.179 67.6179C195.696 67.6179 194.275 67.0298 193.204 65.9585C192.132 64.8872 191.544 63.4658 191.544 61.9828C191.544 60.4998 192.132 59.0784 193.204 58.0071C194.275 56.9358 195.696 56.3477 197.179 56.3477C198.662 56.3477 200.083 56.9358 201.155 58.0071C202.226 59.0784 202.814 60.4998 202.814 61.9828C202.814 63.4658 202.226 64.8872 201.155 65.9585C200.083 67.0298 198.662 67.6179 197.179 67.6179Z" fill="#0E413B"/>
<path d="M210.621 73.0132V50.9258H217.731V73.0132H210.621Z" fill="#0E413B"/>
<path d="M236.355 50.9258L222.545 73.0132H214.63L228.44 50.9258H236.355Z" fill="#0E413B"/>
<path d="M43.708 96.0742H36.5976V90.0771L48.2547 75.3193H55.877L44.8081 90.7904H43.708V96.0742Z" fill="#0E413B"/>
<path d="M96.5701 96.0742V73.9868H115.22V80.5961H103.398V84.3804H114.052V90.3263H103.398V96.0742H96.5701Z" fill="#9ADA34"/>
<path d="M117.306 96.0742V73.9868H124.416V96.0742H117.306Z" fill="#9ADA34"/>
<path d="M126.502 96.0742V73.9868H145.152V80.5961H133.33V84.3804H143.984V90.3263H133.33V96.0742H126.502Z" fill="#9ADA34"/>
<path d="M151.381 96.0742V73.9868H158.491V96.0742H151.381Z" fill="#9ADA34"/>
<path d="M160.587 96.0742V73.9868H179.237V80.5961H167.415V84.3804H178.069V90.3263H167.415V96.0742H160.587Z" fill="#9ADA34"/>
<path d="M181.323 96.0742V73.9868H188.433V96.0742H181.323Z" fill="#9ADA34"/>
<path d="M208.535 85.2204C208.535 82.2654 207.366 79.3826 205.191 77.2078C203.016 75.033 200.134 73.8647 197.179 73.8647C194.224 73.8647 191.341 75.033 189.166 77.2078C186.992 79.3826 185.823 82.2654 185.823 85.2204C185.823 88.1753 186.992 91.0581 189.166 93.2329C191.341 95.4077 194.224 96.576 197.179 96.576C200.134 96.576 203.016 95.4077 205.191 93.2329C207.366 91.0581 208.535 88.1753 208.535 85.2204ZM197.179 90.6789C195.696 90.6789 194.275 90.0908 193.204 89.0195C192.132 87.9482 191.544 86.5268 191.544 85.0438C191.544 83.5608 192.132 82.1394 193.204 81.0681C194.275 79.9968 195.696 79.4087 197.179 79.4087C198.662 79.4087 200.083 79.9968 201.155 81.0681C202.226 82.1394 202.814 83.5608 202.814 85.0438C202.814 86.5268 202.226 87.9482 201.155 89.0195C200.083 90.0908 198.662 90.6789 197.179 90.6789Z" fill="#9ADA34"/>
<path d="M210.621 96.0742V73.9868H217.731V96.0742H210.621Z" fill="#9ADA34"/>
<path d="M236.355 73.9868L222.545 96.0742H214.63L228.44 73.9868H236.355Z" fill="#9ADA34"/>
<path d="M250.165 96.0742H243.055V90.0771L248.843 82.2653L242.467 73.9868H250.165L245.868 80.4683L250.165 96.0742Z" fill="#9ADA34"/>
<path d="M83.0146 5.82559L83.0658 6.08125C83.5529 6.08125 84.0125 6.20907 84.4447 6.46473C84.8769 6.72039 85.1718 7.10391 85.3296 7.61526C85.4873 8.12662 85.5286 8.6929 85.411 9.24803C85.2935 9.80316 85.0259 10.286 84.6081 10.6967C84.1903 11.1073 83.6685 11.4179 83.0425 11.6285C82.4166 11.839 81.7392 11.9349 81.0104 11.9161C80.2815 11.8973 79.5575 11.7549 78.8382 11.4892C78.1189 11.2235 77.457 10.825 76.8524 10.2936L76.5666 10.038L72.7567 13.4869L73.0425 13.7426C74.0904 14.668 75.3402 15.3543 76.7037 15.8013C78.0672 16.2484 79.5109 16.3763 80.9546 16.1206C83.5851 15.659 85.885 14.2902 87.8543 12.0143C89.8235 9.73829 90.8196 6.85647 90.8442 3.97466C90.8688 1.09285 89.9209 -1.68336 88 -4.354C86.0799 -7.02456 83.4012 -8.86068 80.7708 -9.85676C78.1403 -10.8528 75.561 -10.8528 72.9818 -9.85676C70.4026 -8.86068 68.1027 -7.07653 66.0847 -4.354L65.8501 -4.04447L70.0165 -0.953796L70.1999 -1.20945C70.9192 -2.25748 71.8671 -3.10294 73.0415 -3.74597C74.216 -4.389 75.5692 -4.78275 76.9739 -4.92734C79.4789 -5.21312 81.83 -4.47565 83.0136 -2.59431V-2.33865L67.8191 5.41701L83.0146 5.82559Z" fill="#9ADA34"/>
<path d="M62.3582 23.0132V0.925781H69.4686V23.0132H62.3582Z" fill="#9ADA34"/>
<path d="M43.708 23.0132H36.5976V17.0161L48.2547 2.2583H55.877L44.8081 17.7294H43.708V23.0132Z" fill="#9ADA34"/>
</svg>
