<svg id="Layer_1" viewBox="0 0 24 24" xmlns="http://www.w3.org/2000/svg" data-name="Layer 1"><path d="m23.705 16.717-2.207-5.884 2.337-2.337-1.414-1.414-2.919 2.919h-.72l.206-3.872.863-4.154c-.958-1.204-2.398-2.017-3.881-1.973-1.477-.021-2.89.793-3.836 1.982l.866 4.149.21 3.868h-2.216v-5h-1v-3.951c0-.366-.186-.699-.497-.891-.312-.191-.693-.21-1.019-.046l-1.641.821c-.52.259-.843.782-.843 1.363v2.705h-1v5h-2.194l-2.518 6.75c-.188.562-.282 1.148-.282 1.741 0 3.036 2.47 5.506 5.507 5.506h12.986c3.037 0 5.507-2.471 5.507-5.506 0-.594-.095-1.18-.295-1.776zm-7.7-14.715c.604 0 1.181.207 1.671.604l-.497 2.395h-2.374l-.499-2.388c.494-.403 1.114-.6 1.698-.612zm-.956 4.998h1.89l-.159 3.001h-1.567zm-8.056 0h2v3.001h-2zm11.5 15h-12.986c-1.934 0-3.507-1.573-3.507-3.507 0-.378.061-.751.168-1.075l2.02-5.418h15.613l2.02 5.385c.119.357.18.73.18 1.108 0 1.933-1.573 3.507-3.507 3.507z"/></svg>